<?xml version="1.0" standalone="no"?><!DOCTYPE svg PUBLIC "-//W3C//DTD SVG 1.1//EN" "http://www.w3.org/Graphics/SVG/1.1/DTD/svg11.dtd"><svg t="1655862443506" class="icon" viewBox="0 0 1024 1024" version="1.1" xmlns="http://www.w3.org/2000/svg" p-id="3459" xmlns:xlink="http://www.w3.org/1999/xlink" width="24" height="24"><defs><style type="text/css">@font-face { font-family: feedback-iconfont; src: url("//at.alicdn.com/t/font_1031158_u69w8yhxdu.woff2?t=1630033759944") format("woff2"), url("//at.alicdn.com/t/font_1031158_u69w8yhxdu.woff?t=1630033759944") format("woff"), url("//at.alicdn.com/t/font_1031158_u69w8yhxdu.ttf?t=1630033759944") format("truetype"); }
</style></defs><path d="M870.4 409.6h-102.4v460.8c5.12 25.6-10.24 46.08-35.84 51.2H291.84c-25.6-5.12-40.96-25.6-35.84-51.2V409.6H153.6v512c0 56.32 46.08 102.4 102.4 102.4h512c56.32 0 102.4-46.08 102.4-102.4V409.6z" p-id="3460" fill="#bfbfbf"></path><path d="M460.8 409.6H358.4v409.6h102.4zM665.6 409.6h-102.4v409.6h102.4zM972.8 204.8H51.2c-30.72 0-51.2 20.48-51.2 51.2s20.48 51.2 51.2 51.2h921.6c30.72 0 51.2-20.48 51.2-51.2s-20.48-51.2-51.2-51.2z" p-id="3461" fill="#bfbfbf"></path><path d="M665.6 102.4v102.4H358.4V102.4h307.2m0-102.4H358.4C302.08 0 256 46.08 256 102.4v204.8h512V102.4c0-61.44-46.08-102.4-102.4-102.4z" p-id="3462" fill="#bfbfbf"></path></svg>