<?xml version="1.0" standalone="no"?><!DOCTYPE svg PUBLIC "-//W3C//DTD SVG 1.1//EN" "http://www.w3.org/Graphics/SVG/1.1/DTD/svg11.dtd"><svg t="1655707093164" class="icon" viewBox="0 0 1024 1024" version="1.1" xmlns="http://www.w3.org/2000/svg" p-id="4520" xmlns:xlink="http://www.w3.org/1999/xlink" width="15" height="15"><defs><style type="text/css">@font-face { font-family: feedback-iconfont; src: url("//at.alicdn.com/t/font_1031158_u69w8yhxdu.woff2?t=1630033759944") format("woff2"), url("//at.alicdn.com/t/font_1031158_u69w8yhxdu.woff?t=1630033759944") format("woff"), url("//at.alicdn.com/t/font_1031158_u69w8yhxdu.ttf?t=1630033759944") format("truetype"); }
</style></defs><path d="M288 106.688A181.312 181.312 0 0 1 469.312 288v181.312H288a181.312 181.312 0 1 1 0-362.624z m0 448h181.312V736A181.312 181.312 0 1 1 288 554.688z m448-448a181.312 181.312 0 1 1 0 362.624H554.688V288A181.312 181.312 0 0 1 736 106.688z m-181.312 448H736A181.312 181.312 0 1 1 554.688 736V554.688z" p-id="4521" fill="#ffffff"></path></svg>